%TF.GenerationSoftware,KiCad,Pcbnew,(6.0.9)*%
%TF.CreationDate,2023-03-21T17:12:44-04:00*%
%TF.ProjectId,nue-pcb,6e75652d-7063-4622-9e6b-696361645f70,0.1*%
%TF.SameCoordinates,Original*%
%TF.FileFunction,Drillmap*%
%TF.FilePolarity,Positive*%
%FSLAX45Y45*%
G04 Gerber Fmt 4.5, Leading zero omitted, Abs format (unit mm)*
G04 Created by KiCad (PCBNEW (6.0.9)) date 2023-03-21 17:12:44*
%MOMM*%
%LPD*%
G01*
G04 APERTURE LIST*
%ADD10C,0.200000*%
%ADD11C,0.030480*%
%ADD12C,0.076200*%
%ADD13C,0.152400*%
G04 APERTURE END LIST*
D10*
X8186250Y-15598775D02*
X10586250Y-15598775D01*
X18363750Y-5528770D02*
G75*
G03*
X18513750Y-5378775I0J150000D01*
G01*
X10386250Y-5378775D02*
X8386250Y-5378775D01*
X5528750Y-5728775D02*
X5528750Y-14948775D01*
X18663750Y-5078780D02*
G75*
G03*
X18513750Y-5228775I0J-150000D01*
G01*
X21063750Y-5078775D02*
X18663750Y-5078775D01*
X8036250Y-5228775D02*
X8036250Y-5378775D01*
X7886250Y-5528775D02*
X5728750Y-5528775D01*
X8386250Y-15298775D02*
X10386250Y-15298775D01*
X18863750Y-5378785D02*
G75*
G03*
X18863750Y-5528775I0J-74995D01*
G01*
X31341250Y-5528785D02*
G75*
G03*
X31341250Y-5378775I0J75005D01*
G01*
X10886250Y-15148775D02*
X28841250Y-15148775D01*
X31841250Y-15148780D02*
G75*
G03*
X31691250Y-15298775I0J-150000D01*
G01*
X10586250Y-5078775D02*
X8186250Y-5078775D01*
X31691250Y-5378775D02*
X31691250Y-5228775D01*
X10886250Y-15148780D02*
G75*
G03*
X10736250Y-15298775I0J-150000D01*
G01*
X28991245Y-15448775D02*
G75*
G03*
X29141250Y-15598775I150005J5D01*
G01*
X28991255Y-15298775D02*
G75*
G03*
X28841250Y-15148775I-150005J-5D01*
G01*
X5728750Y-5528775D02*
G75*
G03*
X5528750Y-5728775I0J-200000D01*
G01*
X10386250Y-5528785D02*
G75*
G03*
X10386250Y-5378775I0J75005D01*
G01*
X10736250Y-5378775D02*
X10736250Y-5228775D01*
X31341250Y-15148775D02*
X29341250Y-15148775D01*
X34198750Y-14948775D02*
X34198750Y-5728775D01*
X31691245Y-5378775D02*
G75*
G03*
X31841250Y-5528775I150005J5D01*
G01*
X10386250Y-15298785D02*
G75*
G03*
X10386250Y-15148775I0J75005D01*
G01*
X31541250Y-15598770D02*
G75*
G03*
X31691250Y-15448775I0J150000D01*
G01*
X29341250Y-15298775D02*
X31341250Y-15298775D01*
X8036255Y-15298775D02*
G75*
G03*
X7886250Y-15148775I-150005J-5D01*
G01*
X29341250Y-5378785D02*
G75*
G03*
X29341250Y-5528775I0J-74995D01*
G01*
X8386250Y-5378785D02*
G75*
G03*
X8386250Y-5528775I0J-74995D01*
G01*
X7886250Y-5528770D02*
G75*
G03*
X8036250Y-5378775I0J150000D01*
G01*
X10736245Y-5378775D02*
G75*
G03*
X10886250Y-5528775I150005J5D01*
G01*
X10586250Y-15598770D02*
G75*
G03*
X10736250Y-15448775I0J150000D01*
G01*
X29341250Y-15148785D02*
G75*
G03*
X29341250Y-15298775I0J-74995D01*
G01*
X18863750Y-5528775D02*
X20863750Y-5528775D01*
X10736250Y-15448775D02*
X10736250Y-15298775D01*
X8036250Y-15298775D02*
X8036250Y-15448775D01*
X20863750Y-5378775D02*
X18863750Y-5378775D01*
X10736255Y-5228775D02*
G75*
G03*
X10586250Y-5078775I-150005J-5D01*
G01*
X21213745Y-5378775D02*
G75*
G03*
X21363750Y-5528775I150005J5D01*
G01*
X21213755Y-5228775D02*
G75*
G03*
X21063750Y-5078775I-150005J-5D01*
G01*
X28991250Y-5228775D02*
X28991250Y-5378775D01*
X20863750Y-5528785D02*
G75*
G03*
X20863750Y-5378775I0J75005D01*
G01*
X29141250Y-5078780D02*
G75*
G03*
X28991250Y-5228775I0J-150000D01*
G01*
X18363750Y-5528775D02*
X10886250Y-5528775D01*
X8036245Y-15448775D02*
G75*
G03*
X8186250Y-15598775I150005J5D01*
G01*
X8186250Y-5078780D02*
G75*
G03*
X8036250Y-5228775I0J-150000D01*
G01*
X28841250Y-5528775D02*
X21363750Y-5528775D01*
X28841250Y-5528770D02*
G75*
G03*
X28991250Y-5378775I0J150000D01*
G01*
X33998750Y-5528775D02*
X31841250Y-5528775D01*
X29341250Y-5528775D02*
X31341250Y-5528775D01*
X5728750Y-15148775D02*
X7886250Y-15148775D01*
X33998750Y-15148780D02*
G75*
G03*
X34198750Y-14948775I0J200000D01*
G01*
X31841250Y-15148775D02*
X33998750Y-15148775D01*
X8386250Y-5528775D02*
X10386250Y-5528775D01*
X31541250Y-5078775D02*
X29141250Y-5078775D01*
X31341250Y-5378775D02*
X29341250Y-5378775D01*
X31691250Y-15448775D02*
X31691250Y-15298775D01*
X31341250Y-15298785D02*
G75*
G03*
X31341250Y-15148775I0J75005D01*
G01*
X29141250Y-15598775D02*
X31541250Y-15598775D01*
X34198745Y-5728775D02*
G75*
G03*
X33998750Y-5528775I-199995J5D01*
G01*
X8386250Y-15148785D02*
G75*
G03*
X8386250Y-15298775I0J-74995D01*
G01*
X5528755Y-14948775D02*
G75*
G03*
X5728750Y-15148775I199995J-5D01*
G01*
X10386250Y-15148775D02*
X8386250Y-15148775D01*
X28991250Y-15298775D02*
X28991250Y-15448775D01*
X31691255Y-5228775D02*
G75*
G03*
X31541250Y-5078775I-150005J-5D01*
G01*
X18513750Y-5228775D02*
X18513750Y-5378775D01*
X21213750Y-5378775D02*
X21213750Y-5228775D01*
D11*
X30629860Y-9738360D02*
X30660340Y-9768840D01*
X30660340Y-9738360D02*
X30629860Y-9768840D01*
X30629860Y-9916160D02*
X30660340Y-9946640D01*
X30660340Y-9916160D02*
X30629860Y-9946640D01*
X30814010Y-8957310D02*
X30844490Y-8987790D01*
X30844490Y-8957310D02*
X30814010Y-8987790D01*
X30814010Y-9706610D02*
X30844490Y-9737090D01*
X30844490Y-9706610D02*
X30814010Y-9737090D01*
X30855385Y-10627260D02*
X30885865Y-10657740D01*
X30885865Y-10627260D02*
X30855385Y-10657740D01*
X31195010Y-10951210D02*
X31225490Y-10981690D01*
X31225490Y-10951210D02*
X31195010Y-10981690D01*
X31322010Y-11192510D02*
X31352490Y-11222990D01*
X31352490Y-11192510D02*
X31322010Y-11222990D01*
X31372810Y-10951210D02*
X31403290Y-10981690D01*
X31403290Y-10951210D02*
X31372810Y-10981690D01*
X31391960Y-10627260D02*
X31422440Y-10657740D01*
X31422440Y-10627260D02*
X31391960Y-10657740D01*
X31509235Y-7677885D02*
X31539715Y-7708365D01*
X31539715Y-7677885D02*
X31509235Y-7708365D01*
X31576010Y-7369810D02*
X31606490Y-7400290D01*
X31606490Y-7369810D02*
X31576010Y-7400290D01*
X31576010Y-9757410D02*
X31606490Y-9787890D01*
X31606490Y-9757410D02*
X31576010Y-9787890D01*
X31655385Y-13024485D02*
X31685865Y-13054965D01*
X31685865Y-13024485D02*
X31655385Y-13054965D01*
X31683960Y-9878060D02*
X31714440Y-9908540D01*
X31714440Y-9878060D02*
X31683960Y-9908540D01*
X31785560Y-8646160D02*
X31816040Y-8676640D01*
X31816040Y-8646160D02*
X31785560Y-8676640D01*
X31791910Y-9820910D02*
X31822390Y-9851390D01*
X31822390Y-9820910D02*
X31791910Y-9851390D01*
X31823660Y-9160510D02*
X31854140Y-9190990D01*
X31854140Y-9160510D02*
X31823660Y-9190990D01*
X31957010Y-9706610D02*
X31987490Y-9737090D01*
X31987490Y-9706610D02*
X31957010Y-9737090D01*
X32077660Y-8760460D02*
X32108140Y-8790940D01*
X32108140Y-8760460D02*
X32077660Y-8790940D01*
X32249110Y-9135110D02*
X32279590Y-9165590D01*
X32279590Y-9135110D02*
X32249110Y-9165590D01*
X32454450Y-8701170D02*
X32484930Y-8731650D01*
X32484930Y-8701170D02*
X32454450Y-8731650D01*
X32509460Y-9077960D02*
X32539940Y-9108440D01*
X32539940Y-9077960D02*
X32509460Y-9108440D01*
X32572960Y-9027160D02*
X32603440Y-9057640D01*
X32603440Y-9027160D02*
X32572960Y-9057640D01*
X32630110Y-8982710D02*
X32660590Y-9013190D01*
X32660590Y-8982710D02*
X32630110Y-9013190D01*
X33049210Y-10938510D02*
X33079690Y-10968990D01*
X33079690Y-10938510D02*
X33049210Y-10968990D01*
X33506410Y-10913110D02*
X33536890Y-10943590D01*
X33536890Y-10913110D02*
X33506410Y-10943590D01*
D12*
X32010350Y-10991850D02*
G75*
G03*
X32010350Y-10991850I-38100J0D01*
G01*
X32010350Y-11245850D02*
G75*
G03*
X32010350Y-11245850I-38100J0D01*
G01*
X32264350Y-10991850D02*
G75*
G03*
X32264350Y-10991850I-38100J0D01*
G01*
X32264350Y-11245850D02*
G75*
G03*
X32264350Y-11245850I-38100J0D01*
G01*
X32518350Y-10991850D02*
G75*
G03*
X32518350Y-10991850I-38100J0D01*
G01*
X32518350Y-11245850D02*
G75*
G03*
X32518350Y-11245850I-38100J0D01*
G01*
D13*
X6254750Y-5924550D02*
X6254750Y-6076950D01*
X6178550Y-6000750D02*
X6330950Y-6000750D01*
X6254750Y-11639550D02*
X6254750Y-11791950D01*
X6178550Y-11715750D02*
X6330950Y-11715750D01*
X6492875Y-8782050D02*
X6492875Y-8934450D01*
X6416675Y-8858250D02*
X6569075Y-8858250D01*
X6492875Y-13544550D02*
X6492875Y-13696950D01*
X6416675Y-13620750D02*
X6569075Y-13620750D01*
X6731000Y-7829550D02*
X6731000Y-7981950D01*
X6654800Y-7905750D02*
X6807200Y-7905750D01*
X6731000Y-13544550D02*
X6731000Y-13696950D01*
X6654800Y-13620750D02*
X6807200Y-13620750D01*
X6889750Y-6178550D02*
X6889750Y-6330950D01*
X6813550Y-6254750D02*
X6965950Y-6254750D01*
X6889750Y-11893550D02*
X6889750Y-12045950D01*
X6813550Y-11969750D02*
X6965950Y-11969750D01*
X7127875Y-9036050D02*
X7127875Y-9188450D01*
X7051675Y-9112250D02*
X7204075Y-9112250D01*
X7127875Y-13798550D02*
X7127875Y-13950950D01*
X7051675Y-13874750D02*
X7204075Y-13874750D01*
X7207250Y-5924550D02*
X7207250Y-6076950D01*
X7131050Y-6000750D02*
X7283450Y-6000750D01*
X7366000Y-8083550D02*
X7366000Y-8235950D01*
X7289800Y-8159750D02*
X7442200Y-8159750D01*
X7366000Y-13798550D02*
X7366000Y-13950950D01*
X7289800Y-13874750D02*
X7442200Y-13874750D01*
X7445375Y-9734550D02*
X7445375Y-9886950D01*
X7369175Y-9810750D02*
X7521575Y-9810750D01*
X7842250Y-6178550D02*
X7842250Y-6330950D01*
X7766050Y-6254750D02*
X7918450Y-6254750D01*
X7921625Y-11639550D02*
X7921625Y-11791950D01*
X7845425Y-11715750D02*
X7997825Y-11715750D01*
X8080375Y-9988550D02*
X8080375Y-10140950D01*
X8004175Y-10064750D02*
X8156575Y-10064750D01*
X8159750Y-5924550D02*
X8159750Y-6076950D01*
X8083550Y-6000750D02*
X8235950Y-6000750D01*
X8556625Y-11893550D02*
X8556625Y-12045950D01*
X8480425Y-11969750D02*
X8632825Y-11969750D01*
X8636000Y-9734550D02*
X8636000Y-9886950D01*
X8559800Y-9810750D02*
X8712200Y-9810750D01*
X8794750Y-6178550D02*
X8794750Y-6330950D01*
X8718550Y-6254750D02*
X8870950Y-6254750D01*
X8874125Y-11639550D02*
X8874125Y-11791950D01*
X8797925Y-11715750D02*
X8950325Y-11715750D01*
X8874125Y-13544550D02*
X8874125Y-13696950D01*
X8797925Y-13620750D02*
X8950325Y-13620750D01*
X9112250Y-7829550D02*
X9112250Y-7981950D01*
X9036050Y-7905750D02*
X9188450Y-7905750D01*
X9112250Y-13544550D02*
X9112250Y-13696950D01*
X9036050Y-13620750D02*
X9188450Y-13620750D01*
X9271000Y-9988550D02*
X9271000Y-10140950D01*
X9194800Y-10064750D02*
X9347200Y-10064750D01*
X9509125Y-11893550D02*
X9509125Y-12045950D01*
X9432925Y-11969750D02*
X9585325Y-11969750D01*
X9509125Y-13798550D02*
X9509125Y-13950950D01*
X9432925Y-13874750D02*
X9585325Y-13874750D01*
X9747250Y-8083550D02*
X9747250Y-8235950D01*
X9671050Y-8159750D02*
X9823450Y-8159750D01*
X9747250Y-13798550D02*
X9747250Y-13950950D01*
X9671050Y-13874750D02*
X9823450Y-13874750D01*
X10064750Y-5924550D02*
X10064750Y-6076950D01*
X9988550Y-6000750D02*
X10140950Y-6000750D01*
X10541000Y-9734550D02*
X10541000Y-9886950D01*
X10464800Y-9810750D02*
X10617200Y-9810750D01*
X10699750Y-6178550D02*
X10699750Y-6330950D01*
X10623550Y-6254750D02*
X10775950Y-6254750D01*
X11017250Y-7829550D02*
X11017250Y-7981950D01*
X10941050Y-7905750D02*
X11093450Y-7905750D01*
X11176000Y-9988550D02*
X11176000Y-10140950D01*
X11099800Y-10064750D02*
X11252200Y-10064750D01*
X11255375Y-13544550D02*
X11255375Y-13696950D01*
X11179175Y-13620750D02*
X11331575Y-13620750D01*
X11493500Y-11639550D02*
X11493500Y-11791950D01*
X11417300Y-11715750D02*
X11569700Y-11715750D01*
X11493500Y-13544550D02*
X11493500Y-13696950D01*
X11417300Y-13620750D02*
X11569700Y-13620750D01*
X11652250Y-8083550D02*
X11652250Y-8235950D01*
X11576050Y-8159750D02*
X11728450Y-8159750D01*
X11890375Y-13798550D02*
X11890375Y-13950950D01*
X11814175Y-13874750D02*
X11966575Y-13874750D01*
X11969750Y-5924550D02*
X11969750Y-6076950D01*
X11893550Y-6000750D02*
X12045950Y-6000750D01*
X12128500Y-11893550D02*
X12128500Y-12045950D01*
X12052300Y-11969750D02*
X12204700Y-11969750D01*
X12128500Y-13798550D02*
X12128500Y-13950950D01*
X12052300Y-13874750D02*
X12204700Y-13874750D01*
X12446000Y-9734550D02*
X12446000Y-9886950D01*
X12369800Y-9810750D02*
X12522200Y-9810750D01*
X12604750Y-6178550D02*
X12604750Y-6330950D01*
X12528550Y-6254750D02*
X12680950Y-6254750D01*
X12922250Y-7829550D02*
X12922250Y-7981950D01*
X12846050Y-7905750D02*
X12998450Y-7905750D01*
X13081000Y-9988550D02*
X13081000Y-10140950D01*
X13004800Y-10064750D02*
X13157200Y-10064750D01*
X13398500Y-11639550D02*
X13398500Y-11791950D01*
X13322300Y-11715750D02*
X13474700Y-11715750D01*
X13557250Y-8083550D02*
X13557250Y-8235950D01*
X13481050Y-8159750D02*
X13633450Y-8159750D01*
X13636625Y-13544550D02*
X13636625Y-13696950D01*
X13560425Y-13620750D02*
X13712825Y-13620750D01*
X13874750Y-5924550D02*
X13874750Y-6076950D01*
X13798550Y-6000750D02*
X13950950Y-6000750D01*
X14033500Y-11893550D02*
X14033500Y-12045950D01*
X13957300Y-11969750D02*
X14109700Y-11969750D01*
X14271625Y-13798550D02*
X14271625Y-13950950D01*
X14195425Y-13874750D02*
X14347825Y-13874750D01*
X14351000Y-9734550D02*
X14351000Y-9886950D01*
X14274800Y-9810750D02*
X14427200Y-9810750D01*
X14509750Y-6178550D02*
X14509750Y-6330950D01*
X14433550Y-6254750D02*
X14585950Y-6254750D01*
X14827250Y-7829550D02*
X14827250Y-7981950D01*
X14751050Y-7905750D02*
X14903450Y-7905750D01*
X14986000Y-9988550D02*
X14986000Y-10140950D01*
X14909800Y-10064750D02*
X15062200Y-10064750D01*
X15303500Y-11639550D02*
X15303500Y-11791950D01*
X15227300Y-11715750D02*
X15379700Y-11715750D01*
X15462250Y-8083550D02*
X15462250Y-8235950D01*
X15386050Y-8159750D02*
X15538450Y-8159750D01*
X15779750Y-5924550D02*
X15779750Y-6076950D01*
X15703550Y-6000750D02*
X15855950Y-6000750D01*
X15938500Y-11893550D02*
X15938500Y-12045950D01*
X15862300Y-11969750D02*
X16014700Y-11969750D01*
X16256000Y-9734550D02*
X16256000Y-9886950D01*
X16179800Y-9810750D02*
X16332200Y-9810750D01*
X16414750Y-6178550D02*
X16414750Y-6330950D01*
X16338550Y-6254750D02*
X16490950Y-6254750D01*
X16732250Y-7829550D02*
X16732250Y-7981950D01*
X16656050Y-7905750D02*
X16808450Y-7905750D01*
X16891000Y-9988550D02*
X16891000Y-10140950D01*
X16814800Y-10064750D02*
X16967200Y-10064750D01*
X17208500Y-11639550D02*
X17208500Y-11791950D01*
X17132300Y-11715750D02*
X17284700Y-11715750D01*
X17367250Y-8083550D02*
X17367250Y-8235950D01*
X17291050Y-8159750D02*
X17443450Y-8159750D01*
X17684750Y-5924550D02*
X17684750Y-6076950D01*
X17608550Y-6000750D02*
X17760950Y-6000750D01*
X17843500Y-11893550D02*
X17843500Y-12045950D01*
X17767300Y-11969750D02*
X17919700Y-11969750D01*
X18161000Y-9734550D02*
X18161000Y-9886950D01*
X18084800Y-9810750D02*
X18237200Y-9810750D01*
X18319750Y-6178550D02*
X18319750Y-6330950D01*
X18243550Y-6254750D02*
X18395950Y-6254750D01*
X18637250Y-7829550D02*
X18637250Y-7981950D01*
X18561050Y-7905750D02*
X18713450Y-7905750D01*
X18796000Y-9988550D02*
X18796000Y-10140950D01*
X18719800Y-10064750D02*
X18872200Y-10064750D01*
X19113500Y-11639550D02*
X19113500Y-11791950D01*
X19037300Y-11715750D02*
X19189700Y-11715750D01*
X19272250Y-8083550D02*
X19272250Y-8235950D01*
X19196050Y-8159750D02*
X19348450Y-8159750D01*
X19589750Y-5924550D02*
X19589750Y-6076950D01*
X19513550Y-6000750D02*
X19665950Y-6000750D01*
X19589750Y-13544550D02*
X19589750Y-13696950D01*
X19513550Y-13620750D02*
X19665950Y-13620750D01*
X19748500Y-11893550D02*
X19748500Y-12045950D01*
X19672300Y-11969750D02*
X19824700Y-11969750D01*
X20066000Y-9734550D02*
X20066000Y-9886950D01*
X19989800Y-9810750D02*
X20142200Y-9810750D01*
X20224750Y-6178550D02*
X20224750Y-6330950D01*
X20148550Y-6254750D02*
X20300950Y-6254750D01*
X20224750Y-13798550D02*
X20224750Y-13950950D01*
X20148550Y-13874750D02*
X20300950Y-13874750D01*
X20542250Y-7829550D02*
X20542250Y-7981950D01*
X20466050Y-7905750D02*
X20618450Y-7905750D01*
X20701000Y-9988550D02*
X20701000Y-10140950D01*
X20624800Y-10064750D02*
X20777200Y-10064750D01*
X20780375Y-13544550D02*
X20780375Y-13696950D01*
X20704175Y-13620750D02*
X20856575Y-13620750D01*
X21018500Y-11639550D02*
X21018500Y-11791950D01*
X20942300Y-11715750D02*
X21094700Y-11715750D01*
X21177250Y-8083550D02*
X21177250Y-8235950D01*
X21101050Y-8159750D02*
X21253450Y-8159750D01*
X21415375Y-13798550D02*
X21415375Y-13950950D01*
X21339175Y-13874750D02*
X21491575Y-13874750D01*
X21494750Y-5924550D02*
X21494750Y-6076950D01*
X21418550Y-6000750D02*
X21570950Y-6000750D01*
X21653500Y-11893550D02*
X21653500Y-12045950D01*
X21577300Y-11969750D02*
X21729700Y-11969750D01*
X21971000Y-9734550D02*
X21971000Y-9886950D01*
X21894800Y-9810750D02*
X22047200Y-9810750D01*
X22129750Y-6178550D02*
X22129750Y-6330950D01*
X22053550Y-6254750D02*
X22205950Y-6254750D01*
X22447250Y-7829550D02*
X22447250Y-7981950D01*
X22371050Y-7905750D02*
X22523450Y-7905750D01*
X22606000Y-9988550D02*
X22606000Y-10140950D01*
X22529800Y-10064750D02*
X22682200Y-10064750D01*
X22923500Y-11639550D02*
X22923500Y-11791950D01*
X22847300Y-11715750D02*
X22999700Y-11715750D01*
X23082250Y-8083550D02*
X23082250Y-8235950D01*
X23006050Y-8159750D02*
X23158450Y-8159750D01*
X23399750Y-5924550D02*
X23399750Y-6076950D01*
X23323550Y-6000750D02*
X23475950Y-6000750D01*
X23558500Y-11893550D02*
X23558500Y-12045950D01*
X23482300Y-11969750D02*
X23634700Y-11969750D01*
X23876000Y-9734550D02*
X23876000Y-9886950D01*
X23799800Y-9810750D02*
X23952200Y-9810750D01*
X24034750Y-6178550D02*
X24034750Y-6330950D01*
X23958550Y-6254750D02*
X24110950Y-6254750D01*
X24352250Y-7829550D02*
X24352250Y-7981950D01*
X24276050Y-7905750D02*
X24428450Y-7905750D01*
X24511000Y-9988550D02*
X24511000Y-10140950D01*
X24434800Y-10064750D02*
X24587200Y-10064750D01*
X24828500Y-11639550D02*
X24828500Y-11791950D01*
X24752300Y-11715750D02*
X24904700Y-11715750D01*
X24987250Y-8083550D02*
X24987250Y-8235950D01*
X24911050Y-8159750D02*
X25063450Y-8159750D01*
X25304750Y-5924550D02*
X25304750Y-6076950D01*
X25228550Y-6000750D02*
X25380950Y-6000750D01*
X25463500Y-11893550D02*
X25463500Y-12045950D01*
X25387300Y-11969750D02*
X25539700Y-11969750D01*
X25781000Y-9734550D02*
X25781000Y-9886950D01*
X25704800Y-9810750D02*
X25857200Y-9810750D01*
X25939750Y-6178550D02*
X25939750Y-6330950D01*
X25863550Y-6254750D02*
X26015950Y-6254750D01*
X26257250Y-7829550D02*
X26257250Y-7981950D01*
X26181050Y-7905750D02*
X26333450Y-7905750D01*
X26416000Y-9988550D02*
X26416000Y-10140950D01*
X26339800Y-10064750D02*
X26492200Y-10064750D01*
X26733500Y-11639550D02*
X26733500Y-11791950D01*
X26657300Y-11715750D02*
X26809700Y-11715750D01*
X26892250Y-8083550D02*
X26892250Y-8235950D01*
X26816050Y-8159750D02*
X26968450Y-8159750D01*
X27209750Y-5924550D02*
X27209750Y-6076950D01*
X27133550Y-6000750D02*
X27285950Y-6000750D01*
X27368500Y-11893550D02*
X27368500Y-12045950D01*
X27292300Y-11969750D02*
X27444700Y-11969750D01*
X27686000Y-9734550D02*
X27686000Y-9886950D01*
X27609800Y-9810750D02*
X27762200Y-9810750D01*
X27686000Y-13544550D02*
X27686000Y-13696950D01*
X27609800Y-13620750D02*
X27762200Y-13620750D01*
X27844750Y-6178550D02*
X27844750Y-6330950D01*
X27768550Y-6254750D02*
X27920950Y-6254750D01*
X27924125Y-13544550D02*
X27924125Y-13696950D01*
X27847925Y-13620750D02*
X28000325Y-13620750D01*
X28162250Y-7829550D02*
X28162250Y-7981950D01*
X28086050Y-7905750D02*
X28238450Y-7905750D01*
X28321000Y-9988550D02*
X28321000Y-10140950D01*
X28244800Y-10064750D02*
X28397200Y-10064750D01*
X28321000Y-13798550D02*
X28321000Y-13950950D01*
X28244800Y-13874750D02*
X28397200Y-13874750D01*
X28559125Y-13798550D02*
X28559125Y-13950950D01*
X28482925Y-13874750D02*
X28635325Y-13874750D01*
X28638500Y-11639550D02*
X28638500Y-11791950D01*
X28562300Y-11715750D02*
X28714700Y-11715750D01*
X28797250Y-8083550D02*
X28797250Y-8235950D01*
X28721050Y-8159750D02*
X28873450Y-8159750D01*
X29114750Y-5924550D02*
X29114750Y-6076950D01*
X29038550Y-6000750D02*
X29190950Y-6000750D01*
X29273500Y-11893550D02*
X29273500Y-12045950D01*
X29197300Y-11969750D02*
X29349700Y-11969750D01*
X29591000Y-9734550D02*
X29591000Y-9886950D01*
X29514800Y-9810750D02*
X29667200Y-9810750D01*
X29749750Y-6178550D02*
X29749750Y-6330950D01*
X29673550Y-6254750D02*
X29825950Y-6254750D01*
X30067250Y-7829550D02*
X30067250Y-7981950D01*
X29991050Y-7905750D02*
X30143450Y-7905750D01*
X30067250Y-13544550D02*
X30067250Y-13696950D01*
X29991050Y-13620750D02*
X30143450Y-13620750D01*
X30226000Y-9988550D02*
X30226000Y-10140950D01*
X30149800Y-10064750D02*
X30302200Y-10064750D01*
X30305375Y-13544550D02*
X30305375Y-13696950D01*
X30229175Y-13620750D02*
X30381575Y-13620750D01*
X30543500Y-11639550D02*
X30543500Y-11791950D01*
X30467300Y-11715750D02*
X30619700Y-11715750D01*
X30702250Y-8083550D02*
X30702250Y-8235950D01*
X30626050Y-8159750D02*
X30778450Y-8159750D01*
X30702250Y-13798550D02*
X30702250Y-13950950D01*
X30626050Y-13874750D02*
X30778450Y-13874750D01*
X30940375Y-13798550D02*
X30940375Y-13950950D01*
X30864175Y-13874750D02*
X31016575Y-13874750D01*
X31019750Y-5924550D02*
X31019750Y-6076950D01*
X30943550Y-6000750D02*
X31095950Y-6000750D01*
X31178500Y-11893550D02*
X31178500Y-12045950D01*
X31102300Y-11969750D02*
X31254700Y-11969750D01*
X31654750Y-6178550D02*
X31654750Y-6330950D01*
X31578550Y-6254750D02*
X31730950Y-6254750D01*
X31734125Y-11639550D02*
X31734125Y-11791950D01*
X31657925Y-11715750D02*
X31810325Y-11715750D01*
X32210375Y-9734550D02*
X32210375Y-9886950D01*
X32134175Y-9810750D02*
X32286575Y-9810750D01*
X32369125Y-11893550D02*
X32369125Y-12045950D01*
X32292925Y-11969750D02*
X32445325Y-11969750D01*
X32448500Y-7829550D02*
X32448500Y-7981950D01*
X32372300Y-7905750D02*
X32524700Y-7905750D01*
X32448500Y-13544550D02*
X32448500Y-13696950D01*
X32372300Y-13620750D02*
X32524700Y-13620750D01*
X32686625Y-9734550D02*
X32686625Y-9886950D01*
X32610425Y-9810750D02*
X32762825Y-9810750D01*
X32686625Y-11639550D02*
X32686625Y-11791950D01*
X32610425Y-11715750D02*
X32762825Y-11715750D01*
X32686625Y-13544550D02*
X32686625Y-13696950D01*
X32610425Y-13620750D02*
X32762825Y-13620750D01*
X32845375Y-9988550D02*
X32845375Y-10140950D01*
X32769175Y-10064750D02*
X32921575Y-10064750D01*
X32924750Y-5924550D02*
X32924750Y-6076950D01*
X32848550Y-6000750D02*
X33000950Y-6000750D01*
X33083500Y-8083550D02*
X33083500Y-8235950D01*
X33007300Y-8159750D02*
X33159700Y-8159750D01*
X33083500Y-13798550D02*
X33083500Y-13950950D01*
X33007300Y-13874750D02*
X33159700Y-13874750D01*
X33321625Y-9988550D02*
X33321625Y-10140950D01*
X33245425Y-10064750D02*
X33397825Y-10064750D01*
X33321625Y-11893550D02*
X33321625Y-12045950D01*
X33245425Y-11969750D02*
X33397825Y-11969750D01*
X33321625Y-13798550D02*
X33321625Y-13950950D01*
X33245425Y-13874750D02*
X33397825Y-13874750D01*
X33559750Y-6178550D02*
X33559750Y-6330950D01*
X33483550Y-6254750D02*
X33635950Y-6254750D01*
D10*
X5776369Y-15919251D02*
X5776369Y-15719251D01*
X5823988Y-15719251D01*
X5852559Y-15728775D01*
X5871607Y-15747823D01*
X5881131Y-15766870D01*
X5890655Y-15804965D01*
X5890655Y-15833537D01*
X5881131Y-15871632D01*
X5871607Y-15890680D01*
X5852559Y-15909727D01*
X5823988Y-15919251D01*
X5776369Y-15919251D01*
X5976369Y-15919251D02*
X5976369Y-15785918D01*
X5976369Y-15824013D02*
X5985893Y-15804965D01*
X5995417Y-15795442D01*
X6014464Y-15785918D01*
X6033512Y-15785918D01*
X6100178Y-15919251D02*
X6100178Y-15785918D01*
X6100178Y-15719251D02*
X6090655Y-15728775D01*
X6100178Y-15738299D01*
X6109702Y-15728775D01*
X6100178Y-15719251D01*
X6100178Y-15738299D01*
X6223988Y-15919251D02*
X6204940Y-15909727D01*
X6195417Y-15890680D01*
X6195417Y-15719251D01*
X6328750Y-15919251D02*
X6309702Y-15909727D01*
X6300178Y-15890680D01*
X6300178Y-15719251D01*
X6557321Y-15919251D02*
X6557321Y-15719251D01*
X6623988Y-15862108D01*
X6690655Y-15719251D01*
X6690655Y-15919251D01*
X6871607Y-15919251D02*
X6871607Y-15814489D01*
X6862083Y-15795442D01*
X6843036Y-15785918D01*
X6804940Y-15785918D01*
X6785893Y-15795442D01*
X6871607Y-15909727D02*
X6852559Y-15919251D01*
X6804940Y-15919251D01*
X6785893Y-15909727D01*
X6776369Y-15890680D01*
X6776369Y-15871632D01*
X6785893Y-15852584D01*
X6804940Y-15843061D01*
X6852559Y-15843061D01*
X6871607Y-15833537D01*
X6966845Y-15785918D02*
X6966845Y-15985918D01*
X6966845Y-15795442D02*
X6985893Y-15785918D01*
X7023988Y-15785918D01*
X7043036Y-15795442D01*
X7052559Y-15804965D01*
X7062083Y-15824013D01*
X7062083Y-15881156D01*
X7052559Y-15900203D01*
X7043036Y-15909727D01*
X7023988Y-15919251D01*
X6985893Y-15919251D01*
X6966845Y-15909727D01*
X7147798Y-15900203D02*
X7157321Y-15909727D01*
X7147798Y-15919251D01*
X7138274Y-15909727D01*
X7147798Y-15900203D01*
X7147798Y-15919251D01*
X7147798Y-15795442D02*
X7157321Y-15804965D01*
X7147798Y-15814489D01*
X7138274Y-15804965D01*
X7147798Y-15795442D01*
X7147798Y-15814489D01*
D11*
X5488270Y-16233535D02*
X5518750Y-16264015D01*
X5518750Y-16233535D02*
X5488270Y-16264015D01*
D10*
X5814464Y-16139251D02*
X5833512Y-16139251D01*
X5852559Y-16148775D01*
X5862083Y-16158299D01*
X5871607Y-16177346D01*
X5881131Y-16215442D01*
X5881131Y-16263061D01*
X5871607Y-16301156D01*
X5862083Y-16320203D01*
X5852559Y-16329727D01*
X5833512Y-16339251D01*
X5814464Y-16339251D01*
X5795417Y-16329727D01*
X5785893Y-16320203D01*
X5776369Y-16301156D01*
X5766845Y-16263061D01*
X5766845Y-16215442D01*
X5776369Y-16177346D01*
X5785893Y-16158299D01*
X5795417Y-16148775D01*
X5814464Y-16139251D01*
X5966845Y-16320203D02*
X5976369Y-16329727D01*
X5966845Y-16339251D01*
X5957321Y-16329727D01*
X5966845Y-16320203D01*
X5966845Y-16339251D01*
X6043036Y-16139251D02*
X6166845Y-16139251D01*
X6100178Y-16215442D01*
X6128750Y-16215442D01*
X6147798Y-16224965D01*
X6157321Y-16234489D01*
X6166845Y-16253537D01*
X6166845Y-16301156D01*
X6157321Y-16320203D01*
X6147798Y-16329727D01*
X6128750Y-16339251D01*
X6071607Y-16339251D01*
X6052559Y-16329727D01*
X6043036Y-16320203D01*
X6290655Y-16139251D02*
X6309702Y-16139251D01*
X6328750Y-16148775D01*
X6338274Y-16158299D01*
X6347798Y-16177346D01*
X6357321Y-16215442D01*
X6357321Y-16263061D01*
X6347798Y-16301156D01*
X6338274Y-16320203D01*
X6328750Y-16329727D01*
X6309702Y-16339251D01*
X6290655Y-16339251D01*
X6271607Y-16329727D01*
X6262083Y-16320203D01*
X6252559Y-16301156D01*
X6243036Y-16263061D01*
X6243036Y-16215442D01*
X6252559Y-16177346D01*
X6262083Y-16158299D01*
X6271607Y-16148775D01*
X6290655Y-16139251D01*
X6538274Y-16139251D02*
X6443036Y-16139251D01*
X6433512Y-16234489D01*
X6443036Y-16224965D01*
X6462083Y-16215442D01*
X6509702Y-16215442D01*
X6528750Y-16224965D01*
X6538274Y-16234489D01*
X6547798Y-16253537D01*
X6547798Y-16301156D01*
X6538274Y-16320203D01*
X6528750Y-16329727D01*
X6509702Y-16339251D01*
X6462083Y-16339251D01*
X6443036Y-16329727D01*
X6433512Y-16320203D01*
X6633512Y-16339251D02*
X6633512Y-16205918D01*
X6633512Y-16224965D02*
X6643036Y-16215442D01*
X6662083Y-16205918D01*
X6690655Y-16205918D01*
X6709702Y-16215442D01*
X6719226Y-16234489D01*
X6719226Y-16339251D01*
X6719226Y-16234489D02*
X6728750Y-16215442D01*
X6747798Y-16205918D01*
X6776369Y-16205918D01*
X6795417Y-16215442D01*
X6804940Y-16234489D01*
X6804940Y-16339251D01*
X6900178Y-16339251D02*
X6900178Y-16205918D01*
X6900178Y-16224965D02*
X6909702Y-16215442D01*
X6928750Y-16205918D01*
X6957321Y-16205918D01*
X6976369Y-16215442D01*
X6985893Y-16234489D01*
X6985893Y-16339251D01*
X6985893Y-16234489D02*
X6995417Y-16215442D01*
X7014464Y-16205918D01*
X7043036Y-16205918D01*
X7062083Y-16215442D01*
X7071607Y-16234489D01*
X7071607Y-16339251D01*
X7462083Y-16129727D02*
X7290655Y-16386870D01*
X7719226Y-16139251D02*
X7738274Y-16139251D01*
X7757321Y-16148775D01*
X7766845Y-16158299D01*
X7776369Y-16177346D01*
X7785893Y-16215442D01*
X7785893Y-16263061D01*
X7776369Y-16301156D01*
X7766845Y-16320203D01*
X7757321Y-16329727D01*
X7738274Y-16339251D01*
X7719226Y-16339251D01*
X7700178Y-16329727D01*
X7690655Y-16320203D01*
X7681131Y-16301156D01*
X7671607Y-16263061D01*
X7671607Y-16215442D01*
X7681131Y-16177346D01*
X7690655Y-16158299D01*
X7700178Y-16148775D01*
X7719226Y-16139251D01*
X7871607Y-16320203D02*
X7881131Y-16329727D01*
X7871607Y-16339251D01*
X7862083Y-16329727D01*
X7871607Y-16320203D01*
X7871607Y-16339251D01*
X8004940Y-16139251D02*
X8023988Y-16139251D01*
X8043036Y-16148775D01*
X8052559Y-16158299D01*
X8062083Y-16177346D01*
X8071607Y-16215442D01*
X8071607Y-16263061D01*
X8062083Y-16301156D01*
X8052559Y-16320203D01*
X8043036Y-16329727D01*
X8023988Y-16339251D01*
X8004940Y-16339251D01*
X7985893Y-16329727D01*
X7976369Y-16320203D01*
X7966845Y-16301156D01*
X7957321Y-16263061D01*
X7957321Y-16215442D01*
X7966845Y-16177346D01*
X7976369Y-16158299D01*
X7985893Y-16148775D01*
X8004940Y-16139251D01*
X8262083Y-16339251D02*
X8147798Y-16339251D01*
X8204940Y-16339251D02*
X8204940Y-16139251D01*
X8185893Y-16167823D01*
X8166845Y-16186870D01*
X8147798Y-16196394D01*
X8338274Y-16158299D02*
X8347798Y-16148775D01*
X8366845Y-16139251D01*
X8414464Y-16139251D01*
X8433512Y-16148775D01*
X8443036Y-16158299D01*
X8452560Y-16177346D01*
X8452560Y-16196394D01*
X8443036Y-16224965D01*
X8328750Y-16339251D01*
X8452560Y-16339251D01*
X8576369Y-16139251D02*
X8595417Y-16139251D01*
X8614464Y-16148775D01*
X8623988Y-16158299D01*
X8633512Y-16177346D01*
X8643036Y-16215442D01*
X8643036Y-16263061D01*
X8633512Y-16301156D01*
X8623988Y-16320203D01*
X8614464Y-16329727D01*
X8595417Y-16339251D01*
X8576369Y-16339251D01*
X8557321Y-16329727D01*
X8547798Y-16320203D01*
X8538274Y-16301156D01*
X8528750Y-16263061D01*
X8528750Y-16215442D01*
X8538274Y-16177346D01*
X8547798Y-16158299D01*
X8557321Y-16148775D01*
X8576369Y-16139251D01*
X8719226Y-16139251D02*
X8719226Y-16177346D01*
X8795417Y-16139251D02*
X8795417Y-16177346D01*
X9090655Y-16415442D02*
X9081131Y-16405918D01*
X9062083Y-16377346D01*
X9052560Y-16358299D01*
X9043036Y-16329727D01*
X9033512Y-16282108D01*
X9033512Y-16244013D01*
X9043036Y-16196394D01*
X9052560Y-16167823D01*
X9062083Y-16148775D01*
X9081131Y-16120203D01*
X9090655Y-16110680D01*
X9157321Y-16158299D02*
X9166845Y-16148775D01*
X9185893Y-16139251D01*
X9233512Y-16139251D01*
X9252560Y-16148775D01*
X9262083Y-16158299D01*
X9271607Y-16177346D01*
X9271607Y-16196394D01*
X9262083Y-16224965D01*
X9147798Y-16339251D01*
X9271607Y-16339251D01*
X9443036Y-16139251D02*
X9404940Y-16139251D01*
X9385893Y-16148775D01*
X9376369Y-16158299D01*
X9357321Y-16186870D01*
X9347798Y-16224965D01*
X9347798Y-16301156D01*
X9357321Y-16320203D01*
X9366845Y-16329727D01*
X9385893Y-16339251D01*
X9423988Y-16339251D01*
X9443036Y-16329727D01*
X9452560Y-16320203D01*
X9462083Y-16301156D01*
X9462083Y-16253537D01*
X9452560Y-16234489D01*
X9443036Y-16224965D01*
X9423988Y-16215442D01*
X9385893Y-16215442D01*
X9366845Y-16224965D01*
X9357321Y-16234489D01*
X9347798Y-16253537D01*
X9700179Y-16339251D02*
X9700179Y-16139251D01*
X9785893Y-16339251D02*
X9785893Y-16234489D01*
X9776369Y-16215442D01*
X9757321Y-16205918D01*
X9728750Y-16205918D01*
X9709702Y-16215442D01*
X9700179Y-16224965D01*
X9909702Y-16339251D02*
X9890655Y-16329727D01*
X9881131Y-16320203D01*
X9871607Y-16301156D01*
X9871607Y-16244013D01*
X9881131Y-16224965D01*
X9890655Y-16215442D01*
X9909702Y-16205918D01*
X9938274Y-16205918D01*
X9957321Y-16215442D01*
X9966845Y-16224965D01*
X9976369Y-16244013D01*
X9976369Y-16301156D01*
X9966845Y-16320203D01*
X9957321Y-16329727D01*
X9938274Y-16339251D01*
X9909702Y-16339251D01*
X10090655Y-16339251D02*
X10071607Y-16329727D01*
X10062083Y-16310680D01*
X10062083Y-16139251D01*
X10243036Y-16329727D02*
X10223988Y-16339251D01*
X10185893Y-16339251D01*
X10166845Y-16329727D01*
X10157321Y-16310680D01*
X10157321Y-16234489D01*
X10166845Y-16215442D01*
X10185893Y-16205918D01*
X10223988Y-16205918D01*
X10243036Y-16215442D01*
X10252560Y-16234489D01*
X10252560Y-16253537D01*
X10157321Y-16272584D01*
X10328750Y-16329727D02*
X10347798Y-16339251D01*
X10385893Y-16339251D01*
X10404940Y-16329727D01*
X10414464Y-16310680D01*
X10414464Y-16301156D01*
X10404940Y-16282108D01*
X10385893Y-16272584D01*
X10357321Y-16272584D01*
X10338274Y-16263061D01*
X10328750Y-16244013D01*
X10328750Y-16234489D01*
X10338274Y-16215442D01*
X10357321Y-16205918D01*
X10385893Y-16205918D01*
X10404940Y-16215442D01*
X10481131Y-16415442D02*
X10490655Y-16405918D01*
X10509702Y-16377346D01*
X10519226Y-16358299D01*
X10528750Y-16329727D01*
X10538274Y-16282108D01*
X10538274Y-16244013D01*
X10528750Y-16196394D01*
X10519226Y-16167823D01*
X10509702Y-16148775D01*
X10490655Y-16120203D01*
X10481131Y-16110680D01*
D12*
X5518750Y-16512775D02*
G75*
G03*
X5518750Y-16512775I-38100J0D01*
G01*
D10*
X5814464Y-16403251D02*
X5833512Y-16403251D01*
X5852559Y-16412775D01*
X5862083Y-16422299D01*
X5871607Y-16441346D01*
X5881131Y-16479442D01*
X5881131Y-16527061D01*
X5871607Y-16565156D01*
X5862083Y-16584203D01*
X5852559Y-16593727D01*
X5833512Y-16603251D01*
X5814464Y-16603251D01*
X5795417Y-16593727D01*
X5785893Y-16584203D01*
X5776369Y-16565156D01*
X5766845Y-16527061D01*
X5766845Y-16479442D01*
X5776369Y-16441346D01*
X5785893Y-16422299D01*
X5795417Y-16412775D01*
X5814464Y-16403251D01*
X5966845Y-16584203D02*
X5976369Y-16593727D01*
X5966845Y-16603251D01*
X5957321Y-16593727D01*
X5966845Y-16584203D01*
X5966845Y-16603251D01*
X6043036Y-16403251D02*
X6176369Y-16403251D01*
X6090655Y-16603251D01*
X6338274Y-16403251D02*
X6300178Y-16403251D01*
X6281131Y-16412775D01*
X6271607Y-16422299D01*
X6252559Y-16450870D01*
X6243036Y-16488965D01*
X6243036Y-16565156D01*
X6252559Y-16584203D01*
X6262083Y-16593727D01*
X6281131Y-16603251D01*
X6319226Y-16603251D01*
X6338274Y-16593727D01*
X6347798Y-16584203D01*
X6357321Y-16565156D01*
X6357321Y-16517537D01*
X6347798Y-16498489D01*
X6338274Y-16488965D01*
X6319226Y-16479442D01*
X6281131Y-16479442D01*
X6262083Y-16488965D01*
X6252559Y-16498489D01*
X6243036Y-16517537D01*
X6433512Y-16422299D02*
X6443036Y-16412775D01*
X6462083Y-16403251D01*
X6509702Y-16403251D01*
X6528750Y-16412775D01*
X6538274Y-16422299D01*
X6547798Y-16441346D01*
X6547798Y-16460394D01*
X6538274Y-16488965D01*
X6423988Y-16603251D01*
X6547798Y-16603251D01*
X6633512Y-16603251D02*
X6633512Y-16469918D01*
X6633512Y-16488965D02*
X6643036Y-16479442D01*
X6662083Y-16469918D01*
X6690655Y-16469918D01*
X6709702Y-16479442D01*
X6719226Y-16498489D01*
X6719226Y-16603251D01*
X6719226Y-16498489D02*
X6728750Y-16479442D01*
X6747798Y-16469918D01*
X6776369Y-16469918D01*
X6795417Y-16479442D01*
X6804940Y-16498489D01*
X6804940Y-16603251D01*
X6900178Y-16603251D02*
X6900178Y-16469918D01*
X6900178Y-16488965D02*
X6909702Y-16479442D01*
X6928750Y-16469918D01*
X6957321Y-16469918D01*
X6976369Y-16479442D01*
X6985893Y-16498489D01*
X6985893Y-16603251D01*
X6985893Y-16498489D02*
X6995417Y-16479442D01*
X7014464Y-16469918D01*
X7043036Y-16469918D01*
X7062083Y-16479442D01*
X7071607Y-16498489D01*
X7071607Y-16603251D01*
X7462083Y-16393727D02*
X7290655Y-16650870D01*
X7719226Y-16403251D02*
X7738274Y-16403251D01*
X7757321Y-16412775D01*
X7766845Y-16422299D01*
X7776369Y-16441346D01*
X7785893Y-16479442D01*
X7785893Y-16527061D01*
X7776369Y-16565156D01*
X7766845Y-16584203D01*
X7757321Y-16593727D01*
X7738274Y-16603251D01*
X7719226Y-16603251D01*
X7700178Y-16593727D01*
X7690655Y-16584203D01*
X7681131Y-16565156D01*
X7671607Y-16527061D01*
X7671607Y-16479442D01*
X7681131Y-16441346D01*
X7690655Y-16422299D01*
X7700178Y-16412775D01*
X7719226Y-16403251D01*
X7871607Y-16584203D02*
X7881131Y-16593727D01*
X7871607Y-16603251D01*
X7862083Y-16593727D01*
X7871607Y-16584203D01*
X7871607Y-16603251D01*
X8004940Y-16403251D02*
X8023988Y-16403251D01*
X8043036Y-16412775D01*
X8052559Y-16422299D01*
X8062083Y-16441346D01*
X8071607Y-16479442D01*
X8071607Y-16527061D01*
X8062083Y-16565156D01*
X8052559Y-16584203D01*
X8043036Y-16593727D01*
X8023988Y-16603251D01*
X8004940Y-16603251D01*
X7985893Y-16593727D01*
X7976369Y-16584203D01*
X7966845Y-16565156D01*
X7957321Y-16527061D01*
X7957321Y-16479442D01*
X7966845Y-16441346D01*
X7976369Y-16422299D01*
X7985893Y-16412775D01*
X8004940Y-16403251D01*
X8138274Y-16403251D02*
X8262083Y-16403251D01*
X8195417Y-16479442D01*
X8223988Y-16479442D01*
X8243036Y-16488965D01*
X8252559Y-16498489D01*
X8262083Y-16517537D01*
X8262083Y-16565156D01*
X8252559Y-16584203D01*
X8243036Y-16593727D01*
X8223988Y-16603251D01*
X8166845Y-16603251D01*
X8147798Y-16593727D01*
X8138274Y-16584203D01*
X8385893Y-16403251D02*
X8404940Y-16403251D01*
X8423988Y-16412775D01*
X8433512Y-16422299D01*
X8443036Y-16441346D01*
X8452560Y-16479442D01*
X8452560Y-16527061D01*
X8443036Y-16565156D01*
X8433512Y-16584203D01*
X8423988Y-16593727D01*
X8404940Y-16603251D01*
X8385893Y-16603251D01*
X8366845Y-16593727D01*
X8357321Y-16584203D01*
X8347798Y-16565156D01*
X8338274Y-16527061D01*
X8338274Y-16479442D01*
X8347798Y-16441346D01*
X8357321Y-16422299D01*
X8366845Y-16412775D01*
X8385893Y-16403251D01*
X8576369Y-16403251D02*
X8595417Y-16403251D01*
X8614464Y-16412775D01*
X8623988Y-16422299D01*
X8633512Y-16441346D01*
X8643036Y-16479442D01*
X8643036Y-16527061D01*
X8633512Y-16565156D01*
X8623988Y-16584203D01*
X8614464Y-16593727D01*
X8595417Y-16603251D01*
X8576369Y-16603251D01*
X8557321Y-16593727D01*
X8547798Y-16584203D01*
X8538274Y-16565156D01*
X8528750Y-16527061D01*
X8528750Y-16479442D01*
X8538274Y-16441346D01*
X8547798Y-16422299D01*
X8557321Y-16412775D01*
X8576369Y-16403251D01*
X8719226Y-16403251D02*
X8719226Y-16441346D01*
X8795417Y-16403251D02*
X8795417Y-16441346D01*
X9090655Y-16679442D02*
X9081131Y-16669918D01*
X9062083Y-16641346D01*
X9052560Y-16622299D01*
X9043036Y-16593727D01*
X9033512Y-16546108D01*
X9033512Y-16508013D01*
X9043036Y-16460394D01*
X9052560Y-16431823D01*
X9062083Y-16412775D01*
X9081131Y-16384203D01*
X9090655Y-16374680D01*
X9252560Y-16403251D02*
X9214464Y-16403251D01*
X9195417Y-16412775D01*
X9185893Y-16422299D01*
X9166845Y-16450870D01*
X9157321Y-16488965D01*
X9157321Y-16565156D01*
X9166845Y-16584203D01*
X9176369Y-16593727D01*
X9195417Y-16603251D01*
X9233512Y-16603251D01*
X9252560Y-16593727D01*
X9262083Y-16584203D01*
X9271607Y-16565156D01*
X9271607Y-16517537D01*
X9262083Y-16498489D01*
X9252560Y-16488965D01*
X9233512Y-16479442D01*
X9195417Y-16479442D01*
X9176369Y-16488965D01*
X9166845Y-16498489D01*
X9157321Y-16517537D01*
X9509702Y-16603251D02*
X9509702Y-16403251D01*
X9595417Y-16603251D02*
X9595417Y-16498489D01*
X9585893Y-16479442D01*
X9566845Y-16469918D01*
X9538274Y-16469918D01*
X9519226Y-16479442D01*
X9509702Y-16488965D01*
X9719226Y-16603251D02*
X9700179Y-16593727D01*
X9690655Y-16584203D01*
X9681131Y-16565156D01*
X9681131Y-16508013D01*
X9690655Y-16488965D01*
X9700179Y-16479442D01*
X9719226Y-16469918D01*
X9747798Y-16469918D01*
X9766845Y-16479442D01*
X9776369Y-16488965D01*
X9785893Y-16508013D01*
X9785893Y-16565156D01*
X9776369Y-16584203D01*
X9766845Y-16593727D01*
X9747798Y-16603251D01*
X9719226Y-16603251D01*
X9900179Y-16603251D02*
X9881131Y-16593727D01*
X9871607Y-16574680D01*
X9871607Y-16403251D01*
X10052560Y-16593727D02*
X10033512Y-16603251D01*
X9995417Y-16603251D01*
X9976369Y-16593727D01*
X9966845Y-16574680D01*
X9966845Y-16498489D01*
X9976369Y-16479442D01*
X9995417Y-16469918D01*
X10033512Y-16469918D01*
X10052560Y-16479442D01*
X10062083Y-16498489D01*
X10062083Y-16517537D01*
X9966845Y-16536584D01*
X10138274Y-16593727D02*
X10157321Y-16603251D01*
X10195417Y-16603251D01*
X10214464Y-16593727D01*
X10223988Y-16574680D01*
X10223988Y-16565156D01*
X10214464Y-16546108D01*
X10195417Y-16536584D01*
X10166845Y-16536584D01*
X10147798Y-16527061D01*
X10138274Y-16508013D01*
X10138274Y-16498489D01*
X10147798Y-16479442D01*
X10166845Y-16469918D01*
X10195417Y-16469918D01*
X10214464Y-16479442D01*
X10290655Y-16679442D02*
X10300179Y-16669918D01*
X10319226Y-16641346D01*
X10328750Y-16622299D01*
X10338274Y-16593727D01*
X10347798Y-16546108D01*
X10347798Y-16508013D01*
X10338274Y-16460394D01*
X10328750Y-16431823D01*
X10319226Y-16412775D01*
X10300179Y-16384203D01*
X10290655Y-16374680D01*
D13*
X5442550Y-16700575D02*
X5442550Y-16852975D01*
X5366350Y-16776775D02*
X5518750Y-16776775D01*
D10*
X5881131Y-16867251D02*
X5766845Y-16867251D01*
X5823988Y-16867251D02*
X5823988Y-16667251D01*
X5804940Y-16695823D01*
X5785893Y-16714870D01*
X5766845Y-16724394D01*
X5966845Y-16848204D02*
X5976369Y-16857727D01*
X5966845Y-16867251D01*
X5957321Y-16857727D01*
X5966845Y-16848204D01*
X5966845Y-16867251D01*
X6157321Y-16667251D02*
X6062083Y-16667251D01*
X6052559Y-16762489D01*
X6062083Y-16752965D01*
X6081131Y-16743442D01*
X6128750Y-16743442D01*
X6147798Y-16752965D01*
X6157321Y-16762489D01*
X6166845Y-16781537D01*
X6166845Y-16829156D01*
X6157321Y-16848204D01*
X6147798Y-16857727D01*
X6128750Y-16867251D01*
X6081131Y-16867251D01*
X6062083Y-16857727D01*
X6052559Y-16848204D01*
X6243036Y-16686299D02*
X6252559Y-16676775D01*
X6271607Y-16667251D01*
X6319226Y-16667251D01*
X6338274Y-16676775D01*
X6347798Y-16686299D01*
X6357321Y-16705346D01*
X6357321Y-16724394D01*
X6347798Y-16752965D01*
X6233512Y-16867251D01*
X6357321Y-16867251D01*
X6528750Y-16733918D02*
X6528750Y-16867251D01*
X6481131Y-16657727D02*
X6433512Y-16800585D01*
X6557321Y-16800585D01*
X6633512Y-16867251D02*
X6633512Y-16733918D01*
X6633512Y-16752965D02*
X6643036Y-16743442D01*
X6662083Y-16733918D01*
X6690655Y-16733918D01*
X6709702Y-16743442D01*
X6719226Y-16762489D01*
X6719226Y-16867251D01*
X6719226Y-16762489D02*
X6728750Y-16743442D01*
X6747798Y-16733918D01*
X6776369Y-16733918D01*
X6795417Y-16743442D01*
X6804940Y-16762489D01*
X6804940Y-16867251D01*
X6900178Y-16867251D02*
X6900178Y-16733918D01*
X6900178Y-16752965D02*
X6909702Y-16743442D01*
X6928750Y-16733918D01*
X6957321Y-16733918D01*
X6976369Y-16743442D01*
X6985893Y-16762489D01*
X6985893Y-16867251D01*
X6985893Y-16762489D02*
X6995417Y-16743442D01*
X7014464Y-16733918D01*
X7043036Y-16733918D01*
X7062083Y-16743442D01*
X7071607Y-16762489D01*
X7071607Y-16867251D01*
X7462083Y-16657727D02*
X7290655Y-16914870D01*
X7719226Y-16667251D02*
X7738274Y-16667251D01*
X7757321Y-16676775D01*
X7766845Y-16686299D01*
X7776369Y-16705346D01*
X7785893Y-16743442D01*
X7785893Y-16791061D01*
X7776369Y-16829156D01*
X7766845Y-16848204D01*
X7757321Y-16857727D01*
X7738274Y-16867251D01*
X7719226Y-16867251D01*
X7700178Y-16857727D01*
X7690655Y-16848204D01*
X7681131Y-16829156D01*
X7671607Y-16791061D01*
X7671607Y-16743442D01*
X7681131Y-16705346D01*
X7690655Y-16686299D01*
X7700178Y-16676775D01*
X7719226Y-16667251D01*
X7871607Y-16848204D02*
X7881131Y-16857727D01*
X7871607Y-16867251D01*
X7862083Y-16857727D01*
X7871607Y-16848204D01*
X7871607Y-16867251D01*
X8004940Y-16667251D02*
X8023988Y-16667251D01*
X8043036Y-16676775D01*
X8052559Y-16686299D01*
X8062083Y-16705346D01*
X8071607Y-16743442D01*
X8071607Y-16791061D01*
X8062083Y-16829156D01*
X8052559Y-16848204D01*
X8043036Y-16857727D01*
X8023988Y-16867251D01*
X8004940Y-16867251D01*
X7985893Y-16857727D01*
X7976369Y-16848204D01*
X7966845Y-16829156D01*
X7957321Y-16791061D01*
X7957321Y-16743442D01*
X7966845Y-16705346D01*
X7976369Y-16686299D01*
X7985893Y-16676775D01*
X8004940Y-16667251D01*
X8243036Y-16667251D02*
X8204940Y-16667251D01*
X8185893Y-16676775D01*
X8176369Y-16686299D01*
X8157321Y-16714870D01*
X8147798Y-16752965D01*
X8147798Y-16829156D01*
X8157321Y-16848204D01*
X8166845Y-16857727D01*
X8185893Y-16867251D01*
X8223988Y-16867251D01*
X8243036Y-16857727D01*
X8252559Y-16848204D01*
X8262083Y-16829156D01*
X8262083Y-16781537D01*
X8252559Y-16762489D01*
X8243036Y-16752965D01*
X8223988Y-16743442D01*
X8185893Y-16743442D01*
X8166845Y-16752965D01*
X8157321Y-16762489D01*
X8147798Y-16781537D01*
X8385893Y-16667251D02*
X8404940Y-16667251D01*
X8423988Y-16676775D01*
X8433512Y-16686299D01*
X8443036Y-16705346D01*
X8452560Y-16743442D01*
X8452560Y-16791061D01*
X8443036Y-16829156D01*
X8433512Y-16848204D01*
X8423988Y-16857727D01*
X8404940Y-16867251D01*
X8385893Y-16867251D01*
X8366845Y-16857727D01*
X8357321Y-16848204D01*
X8347798Y-16829156D01*
X8338274Y-16791061D01*
X8338274Y-16743442D01*
X8347798Y-16705346D01*
X8357321Y-16686299D01*
X8366845Y-16676775D01*
X8385893Y-16667251D01*
X8576369Y-16667251D02*
X8595417Y-16667251D01*
X8614464Y-16676775D01*
X8623988Y-16686299D01*
X8633512Y-16705346D01*
X8643036Y-16743442D01*
X8643036Y-16791061D01*
X8633512Y-16829156D01*
X8623988Y-16848204D01*
X8614464Y-16857727D01*
X8595417Y-16867251D01*
X8576369Y-16867251D01*
X8557321Y-16857727D01*
X8547798Y-16848204D01*
X8538274Y-16829156D01*
X8528750Y-16791061D01*
X8528750Y-16743442D01*
X8538274Y-16705346D01*
X8547798Y-16686299D01*
X8557321Y-16676775D01*
X8576369Y-16667251D01*
X8719226Y-16667251D02*
X8719226Y-16705346D01*
X8795417Y-16667251D02*
X8795417Y-16705346D01*
X9090655Y-16943442D02*
X9081131Y-16933918D01*
X9062083Y-16905346D01*
X9052560Y-16886299D01*
X9043036Y-16857727D01*
X9033512Y-16810108D01*
X9033512Y-16772013D01*
X9043036Y-16724394D01*
X9052560Y-16695823D01*
X9062083Y-16676775D01*
X9081131Y-16648203D01*
X9090655Y-16638680D01*
X9271607Y-16867251D02*
X9157321Y-16867251D01*
X9214464Y-16867251D02*
X9214464Y-16667251D01*
X9195417Y-16695823D01*
X9176369Y-16714870D01*
X9157321Y-16724394D01*
X9452560Y-16667251D02*
X9357321Y-16667251D01*
X9347798Y-16762489D01*
X9357321Y-16752965D01*
X9376369Y-16743442D01*
X9423988Y-16743442D01*
X9443036Y-16752965D01*
X9452560Y-16762489D01*
X9462083Y-16781537D01*
X9462083Y-16829156D01*
X9452560Y-16848204D01*
X9443036Y-16857727D01*
X9423988Y-16867251D01*
X9376369Y-16867251D01*
X9357321Y-16857727D01*
X9347798Y-16848204D01*
X9633512Y-16733918D02*
X9633512Y-16867251D01*
X9585893Y-16657727D02*
X9538274Y-16800585D01*
X9662083Y-16800585D01*
X9890655Y-16867251D02*
X9890655Y-16667251D01*
X9976369Y-16867251D02*
X9976369Y-16762489D01*
X9966845Y-16743442D01*
X9947798Y-16733918D01*
X9919226Y-16733918D01*
X9900179Y-16743442D01*
X9890655Y-16752965D01*
X10100179Y-16867251D02*
X10081131Y-16857727D01*
X10071607Y-16848204D01*
X10062083Y-16829156D01*
X10062083Y-16772013D01*
X10071607Y-16752965D01*
X10081131Y-16743442D01*
X10100179Y-16733918D01*
X10128750Y-16733918D01*
X10147798Y-16743442D01*
X10157321Y-16752965D01*
X10166845Y-16772013D01*
X10166845Y-16829156D01*
X10157321Y-16848204D01*
X10147798Y-16857727D01*
X10128750Y-16867251D01*
X10100179Y-16867251D01*
X10281131Y-16867251D02*
X10262083Y-16857727D01*
X10252560Y-16838680D01*
X10252560Y-16667251D01*
X10433512Y-16857727D02*
X10414464Y-16867251D01*
X10376369Y-16867251D01*
X10357321Y-16857727D01*
X10347798Y-16838680D01*
X10347798Y-16762489D01*
X10357321Y-16743442D01*
X10376369Y-16733918D01*
X10414464Y-16733918D01*
X10433512Y-16743442D01*
X10443036Y-16762489D01*
X10443036Y-16781537D01*
X10347798Y-16800585D01*
X10519226Y-16857727D02*
X10538274Y-16867251D01*
X10576369Y-16867251D01*
X10595417Y-16857727D01*
X10604940Y-16838680D01*
X10604940Y-16829156D01*
X10595417Y-16810108D01*
X10576369Y-16800585D01*
X10547798Y-16800585D01*
X10528750Y-16791061D01*
X10519226Y-16772013D01*
X10519226Y-16762489D01*
X10528750Y-16743442D01*
X10547798Y-16733918D01*
X10576369Y-16733918D01*
X10595417Y-16743442D01*
X10671607Y-16943442D02*
X10681131Y-16933918D01*
X10700179Y-16905346D01*
X10709702Y-16886299D01*
X10719226Y-16857727D01*
X10728750Y-16810108D01*
X10728750Y-16772013D01*
X10719226Y-16724394D01*
X10709702Y-16695823D01*
X10700179Y-16676775D01*
X10681131Y-16648203D01*
X10671607Y-16638680D01*
M02*
