G04 #@! TF.GenerationSoftware,KiCad,Pcbnew,(6.0.9)*
G04 #@! TF.CreationDate,2023-01-11T00:33:34-05:00*
G04 #@! TF.ProjectId,nue-pcb,6e75652d-7063-4622-9e6b-696361645f70,0.1*
G04 #@! TF.SameCoordinates,Original*
G04 #@! TF.FileFunction,Profile,NP*
%FSLAX46Y46*%
G04 Gerber Fmt 4.6, Leading zero omitted, Abs format (unit mm)*
G04 Created by KiCad (PCBNEW (6.0.9)) date 2023-01-11 00:33:34*
%MOMM*%
%LPD*%
G01*
G04 APERTURE LIST*
G04 #@! TA.AperFunction,Profile*
%ADD10C,0.200000*%
G04 #@! TD*
G04 APERTURE END LIST*
D10*
X81862500Y-155987750D02*
X105862500Y-155987750D01*
X183637500Y-55287700D02*
G75*
G03*
X185137500Y-53787750I0J1500000D01*
G01*
X103862500Y-53787750D02*
X83862500Y-53787750D01*
X55287500Y-57287750D02*
X55287500Y-149487750D01*
X186637500Y-50787800D02*
G75*
G03*
X185137500Y-52287750I0J-1500000D01*
G01*
X210637500Y-50787750D02*
X186637500Y-50787750D01*
X80362500Y-52287750D02*
X80362500Y-53787750D01*
X78862500Y-55287750D02*
X57287500Y-55287750D01*
X83862500Y-152987750D02*
X103862500Y-152987750D01*
X188637500Y-53787850D02*
G75*
G03*
X188637500Y-55287750I0J-749950D01*
G01*
X313412500Y-55287850D02*
G75*
G03*
X313412500Y-53787750I0J750050D01*
G01*
X108862500Y-151487750D02*
X288412500Y-151487750D01*
X318412500Y-151487800D02*
G75*
G03*
X316912500Y-152987750I0J-1500000D01*
G01*
X105862500Y-50787750D02*
X81862500Y-50787750D01*
X316912500Y-53787750D02*
X316912500Y-52287750D01*
X108862500Y-151487800D02*
G75*
G03*
X107362500Y-152987750I0J-1500000D01*
G01*
X289912450Y-154487750D02*
G75*
G03*
X291412500Y-155987750I1500050J50D01*
G01*
X289912550Y-152987750D02*
G75*
G03*
X288412500Y-151487750I-1500050J-50D01*
G01*
X57287500Y-55287750D02*
G75*
G03*
X55287500Y-57287750I0J-2000000D01*
G01*
X103862500Y-55287850D02*
G75*
G03*
X103862500Y-53787750I0J750050D01*
G01*
X107362500Y-53787750D02*
X107362500Y-52287750D01*
X313412500Y-151487750D02*
X293412500Y-151487750D01*
X341987500Y-149487750D02*
X341987500Y-57287750D01*
X316912450Y-53787750D02*
G75*
G03*
X318412500Y-55287750I1500050J50D01*
G01*
X103862500Y-152987850D02*
G75*
G03*
X103862500Y-151487750I0J750050D01*
G01*
X315412500Y-155987700D02*
G75*
G03*
X316912500Y-154487750I0J1500000D01*
G01*
X293412500Y-152987750D02*
X313412500Y-152987750D01*
X80362550Y-152987750D02*
G75*
G03*
X78862500Y-151487750I-1500050J-50D01*
G01*
X293412500Y-53787850D02*
G75*
G03*
X293412500Y-55287750I0J-749950D01*
G01*
X83862500Y-53787850D02*
G75*
G03*
X83862500Y-55287750I0J-749950D01*
G01*
X78862500Y-55287700D02*
G75*
G03*
X80362500Y-53787750I0J1500000D01*
G01*
X107362450Y-53787750D02*
G75*
G03*
X108862500Y-55287750I1500050J50D01*
G01*
X105862500Y-155987700D02*
G75*
G03*
X107362500Y-154487750I0J1500000D01*
G01*
X293412500Y-151487850D02*
G75*
G03*
X293412500Y-152987750I0J-749950D01*
G01*
X188637500Y-55287750D02*
X208637500Y-55287750D01*
X107362500Y-154487750D02*
X107362500Y-152987750D01*
X80362500Y-152987750D02*
X80362500Y-154487750D01*
X208637500Y-53787750D02*
X188637500Y-53787750D01*
X107362550Y-52287750D02*
G75*
G03*
X105862500Y-50787750I-1500050J-50D01*
G01*
X212137450Y-53787750D02*
G75*
G03*
X213637500Y-55287750I1500050J50D01*
G01*
X212137550Y-52287750D02*
G75*
G03*
X210637500Y-50787750I-1500050J-50D01*
G01*
X289912500Y-52287750D02*
X289912500Y-53787750D01*
X208637500Y-55287850D02*
G75*
G03*
X208637500Y-53787750I0J750050D01*
G01*
X291412500Y-50787800D02*
G75*
G03*
X289912500Y-52287750I0J-1500000D01*
G01*
X183637500Y-55287750D02*
X108862500Y-55287750D01*
X80362450Y-154487750D02*
G75*
G03*
X81862500Y-155987750I1500050J50D01*
G01*
X81862500Y-50787800D02*
G75*
G03*
X80362500Y-52287750I0J-1500000D01*
G01*
X288412500Y-55287750D02*
X213637500Y-55287750D01*
X288412500Y-55287700D02*
G75*
G03*
X289912500Y-53787750I0J1500000D01*
G01*
X339987500Y-55287750D02*
X318412500Y-55287750D01*
X293412500Y-55287750D02*
X313412500Y-55287750D01*
X57287500Y-151487750D02*
X78862500Y-151487750D01*
X339987500Y-151487800D02*
G75*
G03*
X341987500Y-149487750I0J2000000D01*
G01*
X318412500Y-151487750D02*
X339987500Y-151487750D01*
X83862500Y-55287750D02*
X103862500Y-55287750D01*
X315412500Y-50787750D02*
X291412500Y-50787750D01*
X313412500Y-53787750D02*
X293412500Y-53787750D01*
X316912500Y-154487750D02*
X316912500Y-152987750D01*
X313412500Y-152987850D02*
G75*
G03*
X313412500Y-151487750I0J750050D01*
G01*
X291412500Y-155987750D02*
X315412500Y-155987750D01*
X341987450Y-57287750D02*
G75*
G03*
X339987500Y-55287750I-1999950J50D01*
G01*
X83862500Y-151487850D02*
G75*
G03*
X83862500Y-152987750I0J-749950D01*
G01*
X55287550Y-149487750D02*
G75*
G03*
X57287500Y-151487750I1999950J-50D01*
G01*
X103862500Y-151487750D02*
X83862500Y-151487750D01*
X289912500Y-152987750D02*
X289912500Y-154487750D01*
X316912550Y-52287750D02*
G75*
G03*
X315412500Y-50787750I-1500050J-50D01*
G01*
X185137500Y-52287750D02*
X185137500Y-53787750D01*
X212137500Y-53787750D02*
X212137500Y-52287750D01*
M02*
