0
SECTION
2
HEADER
9
$INSUNITS
70
4
9
$ACADVER
1
AC1014
9
$HANDSEED
5
FFFF
0
ENDSEC
0
SECTION
2
TABLES
0
TABLE
2
VPORT
5
8
100
AcDbSymbolTable
0
ENDTAB
0
TABLE
2
LTYPE
5
5
100
AcDbSymbolTable
0
LTYPE
5
14
100
AcDbSymbolTableRecord
100
AcDbLinetypeTableRecord
2
BYBLOCK
70
0
0
LTYPE
5
15
100
AcDbSymbolTableRecord
100
AcDbLinetypeTableRecord
2
BYLAYER
70
0
0
ENDTAB
0
TABLE
2
LAYER
5
2
100
AcDbSymbolTable
70
2
0
LAYER
5
50
100
AcDbSymbolTableRecord
100
AcDbLayerTableRecord
2
0
70
0
6
CONTINUOUS
0
ENDTAB
0
TABLE
2
STYLE
5
3
100
AcDbSymbolTable
70
1
0
STYLE
5
11
100
AcDbSymbolTableRecord
100
AcDbTextStyleTableRecord
2
STANDARD
70
0
0
ENDTAB
0
TABLE
2
VIEW
5
6
100
AcDbSymbolTable
70
0
0
ENDTAB
0
TABLE
2
UCS
5
7
100
AcDbSymbolTable
70
0
0
ENDTAB
0
TABLE
2
APPID
5
9
100
AcDbSymbolTable
70
2
0
APPID
5
12
100
AcDbSymbolTableRecord
100
AcDbRegAppTableRecord
2
ACAD
70
0
0
ENDTAB
0
TABLE
2
DIMSTYLE
5
A
100
AcDbSymbolTable
70
1
0
ENDTAB
0
TABLE
2
BLOCK_RECORD
5
1
100
AcDbSymbolTable
70
1
0
BLOCK_RECORD
5
1F
100
AcDbSymbolTableRecord
100
AcDbBlockTableRecord
2
*MODEL_SPACE
0
BLOCK_RECORD
5
1B
100
AcDbSymbolTableRecord
100
AcDbBlockTableRecord
2
*PAPER_SPACE
0
ENDTAB
0
ENDSEC
0
SECTION
2
BLOCKS
0
BLOCK
5
20
100
AcDbEntity
100
AcDbBlockBegin
2
*MODEL_SPACE
0
ENDBLK
5
21
100
AcDbEntity
100
AcDbBlockEnd
0
BLOCK
5
1C
100
AcDbEntity
100
AcDbBlockBegin
2
*PAPER_SPACE
0
ENDBLK
5
1D
100
AcDbEntity
100
AcDbBlockEnd
0
ENDSEC
0
SECTION
2
ENTITIES
0
LWPOLYLINE
5
100
100
AcDbEntity
8
0
100
AcDbPolyline
90
48
70
1
43
0.0
10
0.47500000000000042
20
93.725000000000009
42
0.41421356237309537
10
-1.5249999999999986
20
95.724999999999994
10
-23.099999999998886
20
95.724999999999994
42
-0.41421356237286788
10
-24.599999999998893
20
97.224999999998829
10
-24.600000000000058
20
98.725000000000009
42
0.4142135623730942
10
-26.100000000000069
20
100.22500000000001
10
-50.100000000000065
20
100.22500000000001
42
0.41421356237309159
10
-51.600000000000072
20
98.724999999999994
10
-51.59999999999944
20
97.225000000000648
42
-0.41421356237321821
10
-53.099999999999454
20
95.724999999999994
10
-232.6500000000006
20
95.725000000000023
42
-0.414213562373213
10
-234.1500000000006
20
97.225000000000605
10
-234.14999999999998
20
98.725000000000009
42
0.41421356237309503
10
-235.64999999999998
20
100.22500000000001
10
-259.64999999999998
20
100.22500000000001
42
0.41421356237309503
10
-261.14999999999998
20
98.725000000000009
10
-261.15000000000111
20
97.224999999998829
42
-0.41421356237286611
10
-262.65000000000111
20
95.724999999999994
10
-284.22500000000008
20
95.724999999999994
42
0.41421356237309764
10
-286.22500000000002
20
93.725000000000009
10
-286.22500000000008
20
1.5249999999999986
42
0.41421356237309681
10
-284.22500000000008
20
-0.47500000000000597
10
-262.65000000000111
20
-0.47500000000001458
42
-0.41421356237286616
10
-261.15000000000111
20
-1.9749999999988281
10
-261.14999999999998
20
-3.4750000000000014
42
0.41421356237309503
10
-259.64999999999998
20
-4.975000000000005
10
-235.64999999999998
20
-4.975000000000005
42
0.41421356237309503
10
-234.14999999999998
20
-3.4750000000000014
10
-234.1500000000006
20
-1.9750000000006049
42
-0.414213562373213
10
-232.6500000000006
20
-0.47500000000000014
10
-157.87499999999991
20
-0.47499999999999681
42
-0.41421356237321483
10
-156.37499999999991
20
-1.9750000000006138
10
-156.37500000000051
20
-3.4749999999999437
42
0.41421356237309853
10
-154.87500000000048
20
-4.9749999999999357
10
-130.87499999999932
20
-4.9749999999999508
42
0.41421356237285828
10
-129.37500000000051
20
-3.4749999999999517
10
-129.37499999999935
20
-1.9749999999988375
42
-0.41421356237286788
10
-127.87499999999935
20
-0.47500000000000042
10
-53.099999999999454
20
-0.47499999999999681
42
-0.41421356237321483
10
-51.599999999999454
20
-1.9750000000006138
10
-51.600000000000051
20
-3.474999999999997
42
0.41421356237309853
10
-50.100000000000037
20
-4.974999999999989
10
-26.100000000000069
20
-4.9750000000000041
42
0.41421356237309331
10
-24.600000000000072
20
-3.475000000000005
10
-24.599999999998904
20
-1.9749999999988348
42
-0.41421356237286738
10
-23.099999999998904
20
-0.47500000000000042
10
-1.5249999999999986
20
-0.47500000000000042
42
0.41421356237309481
10
0.47500000000000181
20
1.5249999999999988
0
LWPOLYLINE
5
101
100
AcDbEntity
8
0
100
AcDbPolyline
90
4
70
1
43
0.0
10
-28.100000000000058
20
-1.9749999999999952
42
0.99999999999999989
10
-28.099999999999994
20
-0.47499999999999098
10
-48.099999999997713
20
-0.47499999999999554
42
0.99999999999999989
10
-48.100000000002332
20
-1.9749999999999901
0
LWPOLYLINE
5
102
100
AcDbEntity
8
0
100
AcDbPolyline
90
4
70
1
43
0.0
10
-237.65000000000001
20
-1.9749999999999979
42
0.99999999999999989
10
-237.65000000000001
20
-0.47499999999997655
10
-257.65000000000231
20
-0.47499999999999432
42
0.99999999999999989
10
-257.64999999999998
20
-1.9749999999999979
0
LWPOLYLINE
5
103
100
AcDbEntity
8
0
100
AcDbPolyline
90
4
70
1
43
0.0
10
-48.100000000000037
20
97.224999999999994
42
0.99999999999999989
10
-48.100000000000009
20
95.725000000000023
10
-28.09999999999771
20
95.72499999999998
42
0.99999999999999989
10
-28.100000000002346
20
97.225000000000037
0
LWPOLYLINE
5
104
100
AcDbEntity
8
0
100
AcDbPolyline
90
4
70
1
43
0.0
10
-132.87500000000051
20
-1.9749999999999419
42
0.99999999999999989
10
-132.87500000000045
20
-0.47499999999993769
10
-152.87499999999818
20
-0.47499999999994225
42
0.99999999999999989
10
-152.87500000000279
20
-1.9749999999999368
0
LWPOLYLINE
5
105
100
AcDbEntity
8
0
100
AcDbPolyline
90
8
70
1
43
0.0
10
-2.5249999999999999
20
16.024999999999999
42
0.4142135623730947
10
-3.0249999999999999
20
16.525000000000002
10
-16.024999999999999
20
16.525000000000002
42
0.41421356237309243
10
-16.525000000000002
20
16.024999999999999
10
-16.525000000000002
20
3.0249999999999999
42
0.41421356237309309
10
-16.024999999999999
20
2.5249999999999995
10
-3.0249999999999999
20
2.5249999999999999
42
0.41421356237309437
10
-2.5249999999999995
20
3.0249999999999999
0
LWPOLYLINE
5
106
100
AcDbEntity
8
0
100
AcDbPolyline
90
4
70
1
43
0.0
10
-257.64999999999998
20
97.224999999999994
42
0.99999999999999989
10
-257.65000000000003
20
95.72499999999998
10
-237.65000000000231
20
95.724999999999994
42
0.99999999999999989
10
-237.65000000000001
20
97.224999999999994
0
ENDSEC
0
SECTION
2
OBJECTS
0
DICTIONARY
5
C
100
AcDbDictionary
3
ACAD_GROUP
350
D
3
ACAD_MLINESTYLE
350
17
0
DICTIONARY
5
D
100
AcDbDictionary
0
DICTIONARY
5
1A
330
C
100
AcDbDictionary
0
DICTIONARY
5
17
100
AcDbDictionary
0
ENDSEC
0
EOF
